<mxfile host="www.draw.io" modified="2019-11-07T15:41:20.370Z" agent="Mozilla/5.0 (Macintosh; Intel Mac OS X 10_14_6) AppleWebKit/537.36 (KHTML, like Gecko) Chrome/78.0.3904.87 Safari/537.36" etag="4-lGFzzhxCykIxxGzpCl" version="12.2.2" type="github" pages="1">
  <diagram id="ZfOWLh0gjyYtcQJ10x1z" name="Page-1">
    <mxGraphModel dx="846" dy="545" grid="1" gridSize="10" guides="1" tooltips="1" connect="1" arrows="1" fold="1" page="1" pageScale="1" pageWidth="850" pageHeight="1100" math="0" shadow="0">
      <root>
        <mxCell id="0"/>
        <mxCell id="1" parent="0"/>
        <mxCell id="15cyo-bik37cuiobXDlA-1" value="" style="whiteSpace=wrap;html=1;aspect=fixed;" parent="1" vertex="1">
          <mxGeometry x="510" y="150" width="80" height="80" as="geometry"/>
        </mxCell>
        <mxCell id="_No9UVu-I500sw_ixevA-1" value="" style="shape=cylinder;whiteSpace=wrap;html=1;boundedLbl=1;backgroundOutline=1;" vertex="1" parent="1">
          <mxGeometry x="400" y="220" width="60" height="80" as="geometry"/>
        </mxCell>
        <mxCell id="_No9UVu-I500sw_ixevA-2" value="" style="endArrow=classic;html=1;exitX=1;exitY=0.5;exitDx=0;exitDy=0;" edge="1" parent="1" source="_No9UVu-I500sw_ixevA-1" target="15cyo-bik37cuiobXDlA-1">
          <mxGeometry width="50" height="50" relative="1" as="geometry">
            <mxPoint x="400" y="370" as="sourcePoint"/>
            <mxPoint x="450" y="320" as="targetPoint"/>
          </mxGeometry>
        </mxCell>
      </root>
    </mxGraphModel>
  </diagram>
</mxfile>
